<svg xmlns="http://www.w3.org/2000/svg" width="140.51" height="24.85" viewBox="0 0 140.51 24.85">
  <defs>
    <style>
      .a {
        isolation: isolate;
      }

      .b {
        fill: #fff;
      }
    </style>
  </defs>
  <title>Untitled-1</title>
  <g>
    <g class="a">
      <path class="b" d="M57.95,0h5a16.51,16.51,0,0,1,5.87.75,6,6,0,0,1,2.84,2.43,7.51,7.51,0,0,1,1,4,6.76,6.76,0,0,1-1.36,4.32,7.05,7.05,0,0,1-3.69,2.4,21.2,21.2,0,0,1-5,.39V24.85H57.95V0Zm4.73,9.71h1.5a8.12,8.12,0,0,0,2.47-.25,2.19,2.19,0,0,0,1.09-.84,2.46,2.46,0,0,0,.4-1.42A2.26,2.26,0,0,0,67,5.1a6.36,6.36,0,0,0-3-.49H62.68v5.1Z"/>
      <path class="b" d="M74.69,0H88.26V4.63H79.39V9.12h8.87v4.54H79.39V20.2h8.87v4.65H74.69V0Z"/>
      <path class="b" d="M90,0h5.6q5.42,0,8.05,1.34A10.49,10.49,0,0,1,108,5.71a14.14,14.14,0,0,1,1.71,7.06,14.21,14.21,0,0,1-1,5.28,11,11,0,0,1-2.63,4,9.3,9.3,0,0,1-3.64,2.2,25.91,25.91,0,0,1-6.79.61H90V0Zm4.7,4.56V20.24h2.2a11,11,0,0,0,4.71-.74A5.64,5.64,0,0,0,104,17a9.19,9.19,0,0,0,.93-4.33,8.24,8.24,0,0,0-2.21-6.14q-2-2-6.4-2H94.72Z"/>
      <path class="b" d="M111.22,0h4.7V24.85h-4.7V0Z"/>
      <path class="b" d="M126.16,0H131l9.56,24.85H135.6l-1.94-5.12H123.51l-2,5.12h-4.92Zm2.43,6.59-3.33,8.53h6.65Z"/>
    </g>
    <g class="a">
      <g class="a">
        <path class="b" d="M7.34,3.05H0V0.41H17.86V3.05H10.48V24.52H7.34V3.05Z"/>
      </g>
      <g class="a">
        <path class="b" d="M16.65,12.61c0-2,0-3.79-.14-5.4h2.76l0.11,3.4h0.14a5.2,5.2,0,0,1,4.79-3.79,3.4,3.4,0,0,1,.89.11v3a4.72,4.72,0,0,0-1.07-.11c-2.22,0-3.79,1.68-4.22,4a8.89,8.89,0,0,0-.14,1.47v9.23H16.65V12.61Z"/>
      </g>
      <g class="a">
        <path class="b" d="M31.14,2.34a2,2,0,0,1-3.9,0,1.92,1.92,0,0,1,2-2A1.87,1.87,0,0,1,31.14,2.34ZM27.64,24.52V7.2h3.15V24.52H27.64Z"/>
        <path class="b" d="M33.9,11.89c0-1.79,0-3.26-.14-4.69h2.79l0.18,2.86H36.8a6.37,6.37,0,0,1,5.72-3.26c2.4,0,6.12,1.43,6.12,7.37V24.52H45.49v-10c0-2.79-1-5.12-4-5.12A4.62,4.62,0,0,0,37,14.11V24.52H33.9V11.89Z"/>
      </g>
      <g class="a">
        <path class="b" d="M55.08,2.34a2,2,0,0,1-3.9,0,1.92,1.92,0,0,1,2-2A1.87,1.87,0,0,1,55.08,2.34ZM51.58,24.52V7.2h3.15V24.52H51.58Z"/>
      </g>
    </g>
  </g>
</svg>
