<?xml version="1.0" encoding="utf-8"?>
<!-- Generator: Adobe Illustrator 19.2.1, SVG Export Plug-In . SVG Version: 6.00 Build 0)  -->
<svg version="1.1" id="Layer_1" xmlns="http://www.w3.org/2000/svg" xmlns:xlink="http://www.w3.org/1999/xlink" x="0px" y="0px"
	 width="140.5px" height="24.9px" viewBox="0 0 140.5 24.9" style="enable-background:new 0 0 140.5 24.9;" xml:space="preserve">
<style type="text/css">
	.st0{fill:#f53228;}
</style>
<title>Untitled-1</title>
<g>
	<path class="st0" d="M58,0h5c2-0.1,4,0.1,5.9,0.8C70,1.2,71,2.1,71.7,3.2c0.7,1.2,1,2.6,1,4c0.1,1.6-0.4,3.1-1.4,4.3
		c-0.9,1.2-2.2,2-3.7,2.4c-1.6,0.3-3.3,0.5-5,0.4v10.6H58V0z M62.7,9.7h1.5c0.8,0,1.7,0,2.5-0.3c0.4-0.2,0.8-0.5,1.1-0.8
		c0.3-0.4,0.4-0.9,0.4-1.4c0.1-0.9-0.4-1.7-1.1-2.1c-0.9-0.4-2-0.6-3-0.5h-1.3C62.7,4.6,62.7,9.7,62.7,9.7z"/>
	<path class="st0" d="M90,0h5.6c3.6,0,6.3,0.4,8.1,1.3c1.9,1,3.4,2.5,4.3,4.4c1.2,2.2,1.8,4.6,1.7,7.1c0,1.8-0.3,3.6-1,5.3
		c-0.6,1.5-1.5,2.9-2.6,4c-1,1-2.3,1.8-3.6,2.2c-2.2,0.5-4.5,0.7-6.8,0.6H90V0z M94.7,4.6v15.7h2.2c1.6,0.1,3.2-0.2,4.7-0.7
		c1-0.6,1.9-1.4,2.4-2.5c0.7-1.3,1-2.8,0.9-4.3c0.1-2.3-0.7-4.5-2.2-6.1c-1.3-1.3-3.5-2-6.4-2L94.7,4.6L94.7,4.6z"/>
	<path class="st0" d="M111.2,0h4.7v24.9h-4.7V0z"/>
	<path class="st0" d="M126.2,0h4.8l9.6,24.9h-5l-1.9-5.1h-10.2l-2,5.1h-4.9L126.2,0z M128.6,6.6l-3.3,8.5h6.6L128.6,6.6z"/>
	<g>
		<path d="M7.3,3H0V0.4h17.9V3h-7.4v21.5H7.3V3z"/>
	</g>
	<g>
		<path d="M16.6,12.6c0-2,0-3.8-0.1-5.4h2.8l0.1,3.4h0.1c0.6-2.2,2.5-3.7,4.8-3.8c0.3,0,0.6,0,0.9,0.1v3c-0.4-0.1-0.7-0.1-1.1-0.1
			c-2.2,0-3.8,1.7-4.2,4c-0.1,0.5-0.1,1-0.1,1.5v9.2h-3.1V12.6z"/>
	</g>
	<path d="M31.1,2.3c-0.2,1.1-1.3,1.8-2.4,1.5c-0.7-0.2-1.3-0.8-1.5-1.5c0-1.1,0.8-2,1.8-2c0.1,0,0.1,0,0.2,0c1,0,1.9,0.8,1.9,1.8
		C31.1,2.2,31.1,2.3,31.1,2.3z M27.6,24.5V7.2h3.1v17.3H27.6z"/>
	<path d="M33.9,11.9c0-1.8,0-3.3-0.1-4.7h2.8l0.2,2.9h0.1C38,8,40.2,6.7,42.5,6.8c2.4,0,6.1,1.4,6.1,7.4v10.4h-3.1v-10
		c0-2.8-1-5.1-4-5.1c-2.5,0.1-4.5,2.2-4.5,4.7v10.4h-3.1V11.9z"/>
	<g>
		<path d="M55.1,2.3c-0.2,1.1-1.3,1.8-2.4,1.5c-0.7-0.2-1.3-0.8-1.5-1.5c0-1.1,0.8-2,1.8-2c0.1,0,0.1,0,0.2,0c1,0,1.9,0.8,1.9,1.8
			C55.1,2.2,55.1,2.3,55.1,2.3z M51.6,24.5V7.2h3.2v17.3H51.6z"/>
	</g>
	<polygon class="st0" points="88.3,4.6 88.3,0 79.4,0 74.7,0 74.7,4.6 74.7,20.2 74.7,24.9 79.4,24.9 88.3,24.9 88.3,20.2 
		79.4,20.2 79.4,13.7 88.3,13.7 88.3,9.1 79.4,9.1 79.4,4.6 	"/>
</g>
</svg>
